<?xml version="1.0" encoding="UTF-8" standalone="no"?>
<svg width="25" height="15" viewBox="0 0 25 15" version="1.1" xmlns="http://www.w3.org/2000/svg"
     xml:space="preserve"
     style="fill-rule:evenodd;clip-rule:evenodd;stroke-linejoin:round;stroke-miterlimit:2;"><g id="b"><g><path id="c" d="M9.176,7.419c0,-2.272 1.049,-4.414 2.839,-5.811c-3.209,-2.542 -7.872,-1.999 -10.414,1.21c-2.542,3.209 -1.998,7.873 1.211,10.415c2.695,2.133 6.505,2.133 9.203,-0c-1.79,-1.398 -2.836,-3.543 -2.839,-5.811l0,-0.003Z" style="fill:#ed2026;fill-rule:nonzero;"/><path
  id="d"
  d="M12.012,1.595c1.404,-0.682 2.84,2.6 2.84,5.812c-0,3.212 -1.475,6.613 -2.84,5.811c-1.213,-0.727 -2.872,-2.611 -2.839,-5.811c0.033,-3.2 1.908,-5.37 2.839,-5.812Z"
  style="fill:#f26a21;fill-rule:nonzero;"/>
  <path id="e"
        d="M23.514,11.442l0,-0.216l-0.084,-0l0,-0.058l0.238,0l-0,0.058l-0.057,-0l-0,0.216l-0.097,-0Zm0.466,-0l0,-0.192l-0.057,0.171l-0.069,-0l-0.057,-0.171l-0,0.192l-0.057,-0l-0,-0.283l0.09,0l0.069,0.172l0.069,-0.172l0.096,0l0,0.283l-0.084,-0Zm-7.379,-11.436c-1.668,0 -3.288,0.565 -4.592,1.602c3.203,2.514 3.765,7.148 1.253,10.354l-0.033,0.045c-0.354,0.453 -0.766,0.865 -1.22,1.22c3.209,2.542 7.873,1.998 10.415,-1.211c2.542,-3.209 1.998,-7.873 -1.211,-10.414c-1.313,-1.04 -2.936,-1.602 -4.606,-1.602l-0.006,0.006Z"
        style="fill:#f99f1d;fill-rule:nonzero;"/></g><g id="f"></g></g></svg>
