<svg width="47" height="13" viewBox="0 0 47 13" fill="none" xmlns="http://www.w3.org/2000/svg">
<path d="M6.79784 7.23779H4.10791V9.94186H6.79784V7.23779Z" fill="#A52284"/>
<path d="M6.77635 3.57422H4.08643V6.30009H6.77635V3.57422Z" fill="#36B489"/>
<path d="M3.20409 7.19385H0.51416V9.91972H3.20409V7.19385Z" fill="#FAD05B"/>
<path d="M14.7816 3.39956C14.7816 5.27496 13.2752 6.77964 11.4246 6.77964C11.403 6.77964 11.3815 6.77964 11.36 6.77964H9.89668V9.87623H7.68018V0.0194794H11.36C13.2107 -0.0241345 14.7385 1.48055 14.7601 3.35595C14.7816 3.37775 14.7816 3.37775 14.7816 3.39956ZM12.5436 3.39956C12.5866 2.74535 12.0701 2.17837 11.4246 2.13476C11.403 2.13476 11.3815 2.13476 11.36 2.13476H9.89668V4.66437H11.36C12.0056 4.66437 12.5436 4.11919 12.522 3.44318C12.5436 3.44318 12.5436 3.42137 12.5436 3.39956Z" fill="#010101"/>
<path d="M22.5286 2.65798V9.87608H20.3982V9.20007C19.8602 9.81066 19.0855 10.116 18.2677 10.0723C16.3956 10.0723 14.8677 8.39321 14.8677 6.25613C14.8677 4.11904 16.3956 2.43991 18.2677 2.43991C19.064 2.39629 19.8602 2.7234 20.3982 3.31218V2.65798H22.5286ZM20.3766 6.25613C20.3766 5.29662 19.6235 4.53338 18.6766 4.53338C17.7298 4.53338 16.9766 5.29662 16.9766 6.25613C16.9766 7.21563 17.7298 7.97888 18.6766 7.97888C19.6235 7.97888 20.3766 7.21563 20.3766 6.25613Z" fill="#010101"/>
<path d="M30.6626 2.6582L28.2309 9.61463C27.4347 11.9044 26.1866 12.7984 24.1853 12.7112V10.705C25.1752 10.705 25.6486 10.3997 25.9499 9.5056L23.1523 2.6582H25.4764L27.0474 7.04141L28.3816 2.6582H30.6626Z" fill="#010101"/>
<path d="M38.5819 3.39956C38.5819 5.27496 37.0755 6.77964 35.2249 6.77964C35.2033 6.77964 35.1818 6.77964 35.1603 6.77964H33.697V9.87623H31.4805V0.0194794H35.1603C37.011 -0.0241345 38.5388 1.48055 38.5604 3.35595C38.5819 3.37775 38.5819 3.37775 38.5819 3.39956ZM36.3439 3.39956C36.3869 2.74535 35.8704 2.17837 35.2249 2.13476C35.2033 2.13476 35.1818 2.13476 35.1603 2.13476H33.697V4.66437H35.1603C35.8059 4.66437 36.3439 4.11919 36.3439 3.46498C36.3439 3.44318 36.3439 3.42137 36.3439 3.39956Z" fill="#010101"/>
<path d="M38.8403 6.36522C38.8403 4.31537 40.4758 2.63623 42.5202 2.63623C44.543 2.63623 46.2 4.29356 46.2 6.36522C46.2 8.41508 44.5645 10.0942 42.5202 10.0942C40.4973 10.116 38.8619 8.4805 38.8403 6.43064C38.8403 6.40884 38.8403 6.38703 38.8403 6.36522ZM44.1341 6.36522C44.1341 5.47114 43.424 4.75151 42.5417 4.75151C41.6594 4.75151 40.9492 5.47114 40.9492 6.36522C40.9492 7.25931 41.6594 7.97894 42.5417 7.97894C43.424 7.97894 44.1341 7.25931 44.1341 6.36522Z" fill="#010101"/>
</svg>
