<?xml version="1.0" encoding="UTF-8" standalone="no"?>
<svg width="35" height="12" viewBox="0 0 35 12" version="1.1" xmlns="http://www.w3.org/2000/svg"
     xml:space="preserve"
     style="fill-rule:evenodd;clip-rule:evenodd;stroke-linejoin:round;stroke-miterlimit:2;"><g id="b"><g id="f"><g id="g"><path id="h" d="M4.925,0.138l-4.925,0l0,0.346c1.52,0.051 1.974,0.76 2.145,1.589l0.896,8.888l2.956,0l6.304,-10.823l-2.95,0l-3.786,6.505l-0.64,-6.505Z" style="fill:#1434cb;"/><path
  id="i" d="M13.879,0.138l2.89,0l-3.554,10.82l-2.84,0l3.504,-10.82Z" style="fill:#1434cb;"/><path id="j"
                                                                                                  d="M29.674,0.343l-5.546,10.621l3.104,0l0.811,-1.616l3.608,-0l0.121,1.616l2.839,0l-0.79,-10.621l-4.15,-0l0.003,-0Zm1.512,2.731l0.333,4.489l-2.593,-0l2.26,-4.489Z"
                                                                                                  style="fill:#1434cb;"/></g><path
  id="k"
  d="M17.442,2.885c0.433,-1.704 1.839,-2.885 4.246,-2.885c1.424,0.042 2.797,0.538 3.921,1.412l-1.704,1.788c0,0 -1.253,-0.989 -1.998,-0.989c-0.982,0 -1.424,0.364 -1.514,0.944c-0.177,1.175 4.002,1.89 3.87,4.627c-0.09,1.821 -1.98,3.594 -4.138,3.594c-3.242,-0 -4.84,-1.301 -4.84,-1.301l1.481,-2.073c0,-0 1.476,1.168 2.84,1.105c0.937,-0.039 1.658,-0.396 1.601,-1.021c-0.108,-1.431 -4.507,-2.083 -3.729,-5.198l-0.033,-0.006l-0.003,0.003Z"
  style="fill:#1434cb;fill-rule:nonzero;"/></g></g></svg>
