<?xml version="1.0" encoding="UTF-8"?>
<svg id="a" xmlns="http://www.w3.org/2000/svg" width="64" height="16" viewBox="0 0 213 49.36">
  <defs>
    <style>.l{fill:#f99f1d;}.m,.n{fill:#1434cb;}.o{fill:#f26a21;}.n{fill-rule:evenodd;}.p{fill:#ed2026;}</style>
  </defs>
  <g id="b" transform="translate(0 -0.03)">
    <path id="c" class="p"
          d="M163.45,24.69c0-7.56,3.49-14.69,9.45-19.34-10.68-8.46-26.2-6.65-34.66,4.03-8.46,10.68-6.65,26.2,4.03,34.66,8.97,7.1,21.65,7.1,30.63,0-5.96-4.65-9.44-11.79-9.45-19.34Z"/>
    <path id="d" class="o"
          d="M172.89,5.31c4.67-2.27,9.45,8.65,9.45,19.34s-4.91,22.01-9.45,19.34c-4.04-2.42-9.56-8.69-9.45-19.34,.11-10.65,6.35-17.87,9.45-19.34Z"/>
    <path id="e" class="l"
          d="M211.17,38.08v-.72h-.28v-.19h.79v.19h-.19v.72h-.32Zm1.55,0v-.64l-.19,.57h-.23l-.19-.57v.64h-.19v-.94h.3l.23,.57,.23-.57h.32v.94h-.28ZM188.16,.02c-5.55,0-10.94,1.88-15.28,5.33,10.66,8.37,12.53,23.79,4.17,34.46h0l-.11,.15c-1.18,1.51-2.55,2.88-4.06,4.06,10.68,8.46,26.2,6.65,34.66-4.03s6.65-26.2-4.03-34.66C199.14,1.87,193.74,0,188.18,0l-.02,.02Z"/>
    <g id="f">
      <g id="g">
        <path id="h" class="n"
              d="M6.5,7.18H0v1.15c5.06,.17,6.57,2.53,7.14,5.29l2.98,29.58h9.84L40.94,7.18h-9.82l-12.6,21.65-2.13-21.65H6.5Z"/>
        <path id="i" class="n" d="M46.19,7.18h9.62l-11.83,36.01h-9.45L46.19,7.18Z"/>
        <path id="j" class="n"
              d="M98.76,7.86l-18.46,35.35h10.33l2.7-5.38h12.01l.4,5.38h9.45l-2.63-35.35h-13.81Zm5.03,9.09l1.11,14.94h-8.63l7.52-14.94Z"/>
      </g>
      <path id="k" class="m"
            d="M58.05,16.32c1.44-5.67,6.12-9.6,14.13-9.6,4.74,.14,9.31,1.79,13.05,4.7l-5.67,5.95s-4.17-3.29-6.65-3.29c-3.27,0-4.74,1.21-5.04,3.14-.59,3.91,13.32,6.29,12.88,15.4-.3,6.06-6.59,11.96-13.77,11.96-10.79,0-16.11-4.33-16.11-4.33l4.93-6.9s4.91,3.89,9.45,3.68c3.12-.13,5.52-1.32,5.33-3.4-.36-4.76-15-6.93-12.41-17.3l-.11-.02Z"/>
    </g>
  </g>
</svg>
