<!DOCTYPE svg PUBLIC "-//W3C//DTD SVG 20010904//EN" "http://www.w3.org/TR/2001/REC-SVG-20010904/DTD/svg10.dtd">
<svg version="1.0" xmlns="http://www.w3.org/2000/svg" width="1600px" height="1600px" viewBox="0 0 16000 16000"
     preserveAspectRatio="xMidYMid meet">
  <g id="layer101" fill="#e13134" stroke="none">
    <path d="M0 8000 l0 -8000 8000 0 8000 0 0 8000 0 8000 -8000 0 -8000 0 0 -8000z"/>
  </g>
  <g id="layer102" fill="#cfd4da" stroke="none">
    <path
      d="M3870 9651 c0 -5 74 -459 165 -1008 91 -549 211 -1270 265 -1603 55 -333 103 -617 106 -632 l6 -28 766 0 c612 0 792 3 892 15 364 43 535 151 604 383 30 104 30 182 -3 412 -57 395 -101 631 -135 728 -39 108 -101 207 -182 289 -69 71 -94 89 -175 126 -98 46 -162 66 -301 95 -73 15 -158 17 -693 17 l-610 0 -46 275 c-25 151 -70 425 -100 607 l-54 333 -252 0 c-146 0 -253 -4 -253 -9z m1910 -1706 c52 -9 113 -25 136 -35 47 -23 99 -72 120 -113 25 -48 134 -633 134 -718 0 -105 -34 -153 -127 -176 -62 -16 -522 -31 -970 -32 l-231 -1 -6 28 c-3 15 -42 247 -86 516 -45 269 -84 502 -87 518 l-5 28 513 0 c414 0 532 -3 609 -15z"/>
    <path
      d="M6680 9643 c0 -10 11 -83 25 -161 108 -624 112 -646 142 -737 65 -201 188 -376 337 -477 137 -94 373 -177 866 -304 310 -81 613 -165 680 -190 140 -53 205 -117 240 -233 20 -66 80 -455 80 -515 -1 -49 -34 -110 -73 -135 -48 -30 -191 -47 -500 -62 -362 -17 -589 6 -717 71 -89 45 -156 224 -203 545 l-12 80 -258 3 c-165 1 -257 -1 -257 -8 0 -33 64 -371 85 -450 117 -438 331 -625 795 -695 218 -33 716 -45 953 -24 134 12 272 44 357 82 118 53 223 155 283 277 31 63 32 68 35 225 7 278 -26 508 -105 745 -69 206 -149 324 -280 412 -159 106 -251 140 -793 288 -794 216 -843 233 -929 300 -65 52 -97 127 -127 299 -13 75 -26 148 -28 164 l-5 27 969 0 c534 0 970 3 970 6 0 8 -69 422 -76 457 l-6 27 -1224 0 c-1159 0 -1224 -1 -1224 -17z"/>
    <path
      d="M10943 9638 c8 -32 117 -683 117 -697 0 -8 -231 -11 -828 -11 l-829 0 43 -257 c41 -242 45 -258 72 -287 16 -17 193 -206 392 -421 200 -214 613 -659 919 -987 l556 -598 305 0 306 0 -171 1028 -172 1027 235 3 235 2 -6 48 c-7 54 -64 385 -72 420 l-5 22 -235 0 c-129 0 -235 2 -235 5 0 8 -110 675 -116 703 l-4 22 -256 0 -256 0 5 -22z m318 -1888 c63 -379 112 -690 108 -690 -4 0 -16 11 -26 24 -10 13 -290 313 -622 667 -332 354 -613 654 -624 667 l-20 22 534 0 534 0 116 -690z"/>
  </g>
  <g id="layer103" fill="#ffffff" stroke="none">
    <path
      d="M3870 9651 c0 -5 74 -459 165 -1008 91 -549 211 -1270 265 -1603 55 -333 103 -617 106 -632 l6 -28 766 0 c612 0 792 3 892 15 364 43 535 151 604 383 30 104 30 182 -3 412 -57 395 -101 631 -135 728 -39 108 -101 207 -182 289 -69 71 -94 89 -175 126 -98 46 -162 66 -301 95 -73 15 -158 17 -693 17 l-610 0 -46 275 c-25 151 -70 425 -100 607 l-54 333 -252 0 c-146 0 -253 -4 -253 -9z m1910 -1706 c52 -9 113 -25 136 -35 47 -23 99 -72 120 -113 25 -48 134 -633 134 -718 0 -105 -34 -153 -127 -176 -62 -16 -522 -31 -970 -32 l-231 -1 -6 28 c-3 15 -42 247 -86 516 -45 269 -84 502 -87 518 l-5 28 513 0 c414 0 532 -3 609 -15z"/>
  </g>

</svg>
